# This file uses centimeters as units for non-parametric coordinates.

mtllib Book1.mtl
g default
v -0.111826 -0.474686 0.476424
v 0.027921 -0.474686 0.476424
v -0.111826 0.525314 0.476424
v 0.027921 0.525314 0.476424
v -0.111826 0.525314 -0.523576
v 0.027921 0.525314 -0.523576
v -0.111826 -0.474686 -0.523576
v 0.027921 -0.474686 -0.523576
v -0.000029 -0.474686 0.524228
v -0.000029 -0.474686 -0.523576
v -0.000029 0.525314 -0.523576
v -0.000029 0.525314 0.524228
v -0.098989 -0.474686 0.524228
v -0.098989 -0.474686 -0.523576
v -0.098989 0.525314 -0.523576
v -0.098989 0.525314 0.524228
v -0.111826 0.525314 0.439170
v -0.098989 0.525314 0.439171
v -0.000029 0.525314 0.439171
v 0.027921 0.525314 0.439170
v 0.027921 -0.474686 0.439171
v -0.000029 -0.474686 0.439170
v -0.098989 -0.474686 0.439170
v -0.111826 -0.474686 0.439171
v -0.000029 -0.391869 0.439170
v -0.098989 -0.391869 0.439170
v -0.098989 -0.433277 -0.482167
v -0.000029 -0.433277 -0.482167
v -0.098989 0.483905 -0.482167
v -0.000029 0.483905 -0.482167
v -0.098989 0.442496 0.439171
v -0.000029 0.442496 0.439171
vt 0.630423 0.964600
vt 0.630423 0.836587
vt 0.630423 0.836587
vt 0.630423 0.964600
vt 0.758437 0.964600
vt 0.635193 0.964600
vt 0.635193 0.964600
vt 0.758437 0.964600
vt 0.758437 0.836587
vt 0.758437 0.836587
vt 0.635193 0.836587
vt 0.635193 0.836587
vt 0.758437 0.836587
vt 0.635193 0.836587
vt 0.635193 0.964600
vt 0.758437 0.964600
vt 0.458513 0.484360
vt 0.458513 0.484360
vt 0.500458 0.482474
vt 0.500458 0.482474
vt 0.500458 0.524230
vt 0.500458 0.524230
vt 0.458513 0.522345
vt 0.458513 0.522345
vt 0.630423 0.964600
vt 0.630423 0.836587
vt 0.758437 0.836587
vt 0.635193 0.836587
vt 0.758437 0.964600
vt 0.635193 0.964600
vt 0.630423 0.836587
vt 0.630423 0.964600
vt 0.635193 0.847188
vt 0.635193 0.847188
vt 0.753136 0.841888
vt 0.753136 0.841888
vt 0.753136 0.959300
vt 0.753136 0.959300
vt 0.635193 0.953999
vt 0.635193 0.953999
vn 0.352499 0.000000 0.935812
vn 0.352499 0.000000 0.935812
vn 0.863278 0.000000 0.504728
vn 0.863278 0.000000 0.504728
vn 0.000000 1.000000 0.000000
vn 0.000000 1.000000 0.000000
vn 0.000000 1.000000 0.000000
vn 0.000000 1.000000 0.000000
vn 0.000000 0.000000 -1.000000
vn 0.000000 0.000000 -1.000000
vn 0.000000 0.000000 -1.000000
vn 0.000000 0.000000 -1.000000
vn 0.000000 -1.000000 0.000000
vn 0.000000 -1.000000 0.000000
vn 0.000000 -1.000000 0.000000
vn 0.000000 -1.000000 0.000000
vn 1.000000 0.000000 0.000000
vn 1.000000 0.000000 0.000000
vn 1.000000 0.000000 0.000000
vn 1.000000 0.000000 0.000000
vn -1.000000 0.000000 0.000000
vn -1.000000 0.000000 0.000000
vn -1.000000 0.000000 0.000000
vn -1.000000 0.000000 0.000000
vn 0.000000 -0.998992 0.044899
vn 0.000000 -0.998992 0.044899
vn 0.000000 -0.998992 0.044899
vn 0.000000 -0.998992 0.044899
vn 0.000000 0.000000 -1.000000
vn 0.000000 0.000000 -1.000000
vn 0.000000 0.000000 -1.000000
vn 0.000000 0.000000 -1.000000
vn 0.000000 0.998992 0.044899
vn 0.000000 0.998992 0.044899
vn 0.000000 0.998992 0.044899
vn 0.000000 0.998992 0.044899
vn -0.393161 0.000000 0.919470
vn -0.393161 0.000000 0.919470
vn 0.000000 -1.000000 0.000000
vn 0.000000 -1.000000 0.000000
vn 0.000000 -1.000000 0.000000
vn 0.000000 -1.000000 0.000000
vn 0.000000 0.000000 -1.000000
vn 0.000000 0.000000 -1.000000
vn 0.000000 0.000000 -1.000000
vn 0.000000 0.000000 -1.000000
vn 0.000000 1.000000 0.000000
vn 0.000000 1.000000 0.000000
vn 0.000000 1.000000 0.000000
vn 0.000000 1.000000 0.000000
vn -0.965786 0.000000 0.259341
vn -0.965786 0.000000 0.259341
vn 0.000000 1.000000 0.000000
vn 0.000000 1.000000 0.000000
vn 0.000000 1.000000 0.000000
vn 0.000000 1.000000 0.000000
vn 1.000000 0.000000 0.000000
vn 1.000000 0.000000 0.000000
vn 0.000000 -1.000000 0.000000
vn 0.000000 -1.000000 0.000000
vn 0.000000 -1.000000 0.000000
vn 0.000000 -1.000000 0.000000
vn -1.000000 0.000000 0.000000
vn -1.000000 0.000000 0.000000
vn 0.000000 0.000000 -1.000000
vn 0.000000 0.000000 -1.000000
vn 0.000000 0.000000 -1.000000
vn 0.000000 0.000000 -1.000000
vn 1.000000 0.000000 0.000000
vn 1.000000 0.000000 0.000000
vn 1.000000 0.000000 0.000000
vn 1.000000 0.000000 0.000000
vn -1.000000 0.000000 0.000000
vn -1.000000 0.000000 0.000000
vn -1.000000 0.000000 0.000000
vn -1.000000 0.000000 0.000000
vn 1.000000 -0.000000 0.000000
vn 1.000000 -0.000000 0.000000
vn -1.000000 0.000000 0.000000
vn -1.000000 0.000000 0.000000
vn 1.000000 -0.000000 0.000000
vn 1.000000 -0.000000 0.000000
vn 0.000000 0.000000 -1.000000
vn 0.000000 0.000000 -1.000000
vn 0.000000 0.000000 -1.000000
vn 0.000000 0.000000 -1.000000
vn -1.000000 0.000000 0.000000
vn -1.000000 0.000000 0.000000
s 1
g polySurface9 polySurface8 pCylinder5
usemtl initialShadingGroup
f 12/1/1 9/2/2 2/3/3 4/4/4
s 2
f 11/5/5 19/6/6 20/7/7 6/8/8
s off
f 10/9/9 11/5/10 6/8/11 8/10/12
s 3
f 21/11/13 22/12/14 10/9/15 8/10/16
s 4
f 20/7/17 21/11/18 8/10/19 6/8/20
s 5
f 7/13/21 24/14/22 17/15/23 5/16/24
s off
f 25/17/25 26/18/26 27/19/27 28/20/28
f 27/19/29 29/21/30 30/22/31 28/20/32
f 29/21/33 31/23/34 32/24/35 30/22/36
s 1
f 16/25/37 13/26/38 9/2/2 12/1/1
s 3
f 7/13/39 14/27/40 23/28/41 24/14/42
s off
f 5/16/43 15/29/44 14/27/45 7/13/46
s 2
f 17/15/47 18/30/48 15/29/49 5/16/50
s 1
f 1/31/51 13/26/38 16/25/37 3/32/52
s 2
f 3/32/53 16/25/54 18/30/48 17/15/47
f 19/6/6 18/30/48 16/25/54 12/1/55
f 20/7/7 19/6/6 12/1/55 4/4/56
s 4
f 2/3/57 21/11/18 20/7/17 4/4/58
s 3
f 9/2/59 22/12/14 21/11/13 2/3/60
f 13/26/61 23/28/41 22/12/14 9/2/59
f 24/14/42 23/28/41 13/26/61 1/31/62
s 5
f 17/15/23 24/14/22 1/31/63 3/32/64
s off
f 22/12/65 23/28/66 26/33/67 25/34/68
s 8
f 23/28/69 14/27/70 27/35/71 26/33/72
s 9
f 10/9/73 22/12/74 25/34/75 28/36/76
s 8
f 14/27/70 15/29/77 29/37/78 27/35/71
s 9
f 11/5/79 10/9/73 28/36/76 30/38/80
s 8
f 15/29/77 18/30/81 31/39/82 29/37/78
s off
f 18/30/83 19/6/84 32/40/85 31/39/86
s 9
f 19/6/87 11/5/79 30/38/80 32/40/88
