# This file uses centimeters as units for non-parametric coordinates.

mtllib Coin.mtl
g default
v 1.527123 -0.013064 -0.076723
v 1.444102 -0.013064 -0.095672
v 1.377524 -0.013064 -0.042578
v 1.377524 -0.013064 0.042578
v 1.444102 -0.013064 0.095672
v 1.527123 -0.013064 0.076723
v 1.564071 -0.013064 0.000000
v 1.527123 0.013064 -0.076723
v 1.444102 0.013064 -0.095672
v 1.377524 0.013064 -0.042578
v 1.377524 0.013064 0.042578
v 1.444102 0.013064 0.095672
v 1.527123 0.013064 0.076723
v 1.564071 0.013064 0.000000
v 1.465938 -0.013064 0.000000
v 1.465938 0.013064 0.000000
vt 0.802513 0.871904
vt 0.749977 0.883594
vt 0.749977 0.883594
vt 0.802513 0.871904
vt 0.707848 0.850839
vt 0.707848 0.850839
vt 0.707848 0.798304
vt 0.707848 0.798304
vt 0.749977 0.765549
vt 0.749977 0.765549
vt 0.802513 0.777239
vt 0.802513 0.777239
vt 0.825893 0.824572
vt 0.825893 0.824572
vt 0.763795 0.824572
vt 0.763795 0.824572
vn 0.222521 0.000000 -0.974928
vn 0.222521 0.000000 -0.974928
vn 0.222521 0.000000 -0.974928
vn 0.222521 0.000000 -0.974928
vn -0.623490 0.000000 -0.781831
vn -0.623490 0.000000 -0.781831
vn -0.623490 0.000000 -0.781831
vn -0.623490 0.000000 -0.781831
vn -1.000000 0.000000 0.000000
vn -1.000000 0.000000 0.000000
vn -1.000000 0.000000 0.000000
vn -1.000000 0.000000 0.000000
vn -0.623490 0.000000 0.781831
vn -0.623490 0.000000 0.781831
vn -0.623490 0.000000 0.781831
vn -0.623490 0.000000 0.781831
vn 0.222521 0.000000 0.974928
vn 0.222521 0.000000 0.974928
vn 0.222521 0.000000 0.974928
vn 0.222521 0.000000 0.974928
vn 0.900969 0.000000 0.433883
vn 0.900969 0.000000 0.433883
vn 0.900969 0.000000 0.433883
vn 0.900969 0.000000 0.433883
vn 0.900969 0.000000 -0.433883
vn 0.900969 0.000000 -0.433883
vn 0.900969 0.000000 -0.433883
vn 0.900969 0.000000 -0.433883
vn 0.000000 -1.000000 0.000000
vn 0.000000 -1.000000 0.000000
vn 0.000000 -1.000000 0.000000
vn 0.000000 -1.000000 0.000000
vn 0.000000 -1.000000 0.000000
vn 0.000000 -1.000000 0.000000
vn 0.000000 -1.000000 0.000000
vn 0.000000 -1.000000 0.000000
vn 0.000000 1.000000 0.000000
vn 0.000000 1.000000 0.000000
vn 0.000000 1.000000 0.000000
vn 0.000000 1.000000 0.000000
vn 0.000000 1.000000 0.000000
vn 0.000000 1.000000 0.000000
vn 0.000000 1.000000 0.000000
vn 0.000000 1.000000 0.000000
s off
g Bar:pCylinder1
usemtl initialShadingGroup
f 1/1/1 2/2/2 9/3/3 8/4/4
f 2/2/5 3/5/6 10/6/7 9/3/8
f 3/5/9 4/7/10 11/8/11 10/6/12
f 4/7/13 5/9/14 12/10/15 11/8/16
f 5/9/17 6/11/18 13/12/19 12/10/20
f 6/11/21 7/13/22 14/14/23 13/12/24
f 7/13/25 1/1/26 8/4/27 14/14/28
s 1
f 2/2/29 1/1/30 15/15/31
f 3/5/32 2/2/29 15/15/31
f 4/7/33 3/5/32 15/15/31
f 5/9/34 4/7/33 15/15/31
f 6/11/35 5/9/34 15/15/31
f 7/13/36 6/11/35 15/15/31
f 1/1/30 7/13/36 15/15/31
s 2
f 8/4/37 9/3/38 16/16/39
f 9/3/38 10/6/40 16/16/39
f 10/6/40 11/8/41 16/16/39
f 11/8/41 12/10/42 16/16/39
f 12/10/42 13/12/43 16/16/39
f 13/12/43 14/14/44 16/16/39
f 14/14/44 8/4/37 16/16/39
