# This file uses centimeters as units for non-parametric coordinates.

mtllib GoldenJug.mtl
g default
v -0.151225 2.987721 1.161621
v -0.290788 2.987721 1.129767
v -0.402708 2.987721 1.219020
v -0.402708 2.987721 1.362172
v -0.290788 2.987721 1.451425
v -0.151225 2.987721 1.419571
v -0.089114 2.987721 1.290596
v 0.006190 3.053171 0.947199
v -0.365395 3.053171 0.862387
v -0.663384 3.053171 1.100025
v -0.663384 3.053171 1.481167
v -0.365395 3.053171 1.718805
v 0.006190 3.053171 1.633993
v 0.171561 3.053171 1.290596
v 0.006190 3.118621 0.947199
v -0.365395 3.118621 0.862387
v -0.663384 3.118621 1.100025
v -0.663384 3.118621 1.481167
v -0.365395 3.118621 1.718805
v 0.006190 3.118621 1.633993
v 0.171561 3.118621 1.290596
v -0.052613 3.068264 1.027297
v -0.337525 3.068264 0.962268
v -0.566007 3.068264 1.144476
v -0.566007 3.068264 1.436716
v -0.337525 3.068264 1.618924
v -0.052613 3.068264 1.553894
v 0.074185 3.068264 1.290596
v -0.035252 3.081340 1.003649
v 0.102934 3.081340 1.290596
v -0.035252 3.081340 1.577543
v -0.345754 3.081340 1.648413
v -0.594757 3.081340 1.449839
v -0.594757 3.081340 1.131352
v -0.345754 3.081340 0.932779
v -0.095486 3.086815 1.058987
v -0.307883 3.086815 1.010509
v -0.478212 3.086815 1.146342
v -0.478212 3.086815 1.364201
v -0.307883 3.086815 1.500034
v -0.095486 3.086815 1.451556
v -0.000961 3.086815 1.255271
v -0.095486 3.247697 1.058987
v -0.307883 3.247697 1.010509
v -0.478212 3.247697 1.146342
v -0.478212 3.247697 1.364201
v -0.307883 3.247697 1.500034
v -0.095486 3.247697 1.451556
v -0.000961 3.247697 1.255271
v -0.132359 3.442316 1.109213
v -0.290407 3.442316 1.073140
v -0.417152 3.442316 1.174215
v -0.417152 3.442316 1.336328
v -0.290407 3.442316 1.437403
v -0.132359 3.442316 1.401330
v -0.062021 3.442316 1.255271
v -0.191771 3.535723 1.190140
v -0.262249 3.535723 1.174054
v -0.318767 3.535723 1.219126
v -0.318767 3.535723 1.291417
v -0.262249 3.535723 1.336489
v -0.191771 3.535723 1.320403
v -0.160406 3.535723 1.255271
v -0.157231 3.730342 1.143093
v -0.278619 3.730342 1.115386
v -0.375964 3.730342 1.193017
v -0.375964 3.730342 1.317526
v -0.278619 3.730342 1.395156
v -0.157231 3.730342 1.367450
v -0.103209 3.730342 1.255271
v -0.255519 3.730342 1.255271
vt 0.456678 0.480503
vt 0.442594 0.483637
vt 0.435065 0.509944
vt 0.472564 0.501600
vt 0.431299 0.474856
vt 0.404992 0.486564
vt 0.431299 0.460772
vt 0.404992 0.449064
vt 0.442594 0.451990
vt 0.435065 0.425683
vt 0.456678 0.455124
vt 0.472564 0.434028
vt 0.462946 0.467814
vt 0.489253 0.467814
vt 0.435065 0.509944
vt 0.472564 0.501600
vt 0.404992 0.486564
vt 0.404992 0.449064
vt 0.435065 0.425683
vt 0.472564 0.434028
vt 0.489253 0.467814
vt 0.625726 0.201205
vt 0.468382 0.496046
vt 0.566595 0.155232
vt 0.566595 0.081496
vt 0.625726 0.035523
vt 0.699462 0.051930
vt 0.732277 0.118364
vt 0.479426 0.467814
vt 0.695339 0.179322
vt 0.627680 0.194378
vt 0.414819 0.482190
vt 0.695339 0.057405
vt 0.627680 0.042350
vt 0.414819 0.453437
vt 0.437047 0.503018
vt 0.699462 0.184797
vt 0.411918 0.483481
vt 0.411918 0.452146
vt 0.437047 0.432609
vt 0.468382 0.439582
vt 0.482327 0.467814
vt 0.725450 0.118364
vt 0.466630 0.493719
vt 0.466630 0.441909
vt 0.437877 0.435510
vt 0.573422 0.084534
vt 0.573422 0.152193
vt 0.437877 0.500117
vt 0.490262 0.059074
vt 0.514560 0.059074
vt 0.514560 0.423780
vt 0.490262 0.423780
vt 0.446477 0.059074
vt 0.446477 0.423780
vt 0.337280 0.059074
vt 0.337280 0.423780
vt 0.269197 0.059074
vt 0.269197 0.423780
vt 0.293496 0.059074
vt 0.293496 0.423780
vt 0.391879 0.059074
vt 0.391879 0.423780
vt 0.483168 0.497984
vt 0.465087 0.497984
vt 0.432507 0.497984
vt 0.351251 0.497984
vt 0.300590 0.497984
vt 0.318671 0.497984
vt 0.391879 0.497984
vt 0.432587 0.533599
vt 0.424524 0.533599
vt 0.409996 0.533599
vt 0.373762 0.533599
vt 0.351171 0.533599
vt 0.359234 0.533599
vt 0.391879 0.533599
vt 0.461993 0.954299
vt 0.448106 0.954299
vt 0.423083 0.954299
vt 0.360675 0.954299
vt 0.321765 0.954299
vt 0.335652 0.954299
vt 0.391879 0.954299
vt 0.391879 0.607803
vn 0.057634 -0.965877 -0.252509
vn 0.057634 -0.965877 -0.252509
vn 0.142186 -0.769223 -0.622960
vn 0.137899 -0.784830 -0.604174
vn -0.154683 -0.968736 -0.193966
vn -0.154683 -0.968736 -0.193966
vn -0.383794 -0.788092 -0.481262
vn -0.374523 -0.799483 -0.469637
vn -0.243518 -0.969896 0.000000
vn -0.243518 -0.969896 0.000000
vn -0.598961 -0.800778 0.000000
vn -0.598961 -0.800778 0.000000
vn -0.154683 -0.968736 0.193967
vn -0.154683 -0.968736 0.193967
vn -0.374524 -0.799483 0.469637
vn -0.383794 -0.788092 0.481262
vn 0.057634 -0.965877 0.252510
vn 0.057634 -0.965876 0.252510
vn 0.137898 -0.784830 0.604174
vn 0.142186 -0.769223 0.622960
vn 0.241860 -0.963295 0.116474
vn 0.241860 -0.963295 0.116474
vn 0.578971 -0.766194 0.278817
vn 0.586926 -0.758702 0.282648
vn 0.241861 -0.963295 -0.116473
vn 0.241861 -0.963295 -0.116473
vn 0.586926 -0.758702 -0.282648
vn 0.578971 -0.766194 -0.278817
vn 0.154021 0.721739 -0.674811
vn 0.144887 0.758976 -0.634794
vn -0.414389 0.747174 -0.519628
vn -0.394041 0.774974 -0.494113
vn -0.638290 0.769796 0.000000
vn -0.638290 0.769796 0.000000
vn -0.394042 0.774974 0.494112
vn -0.414390 0.747173 0.519628
vn 0.144886 0.758978 0.634792
vn 0.154020 0.721740 0.674811
vn 0.614564 0.731246 0.295958
vn 0.631066 0.713721 0.303904
vn 0.631064 0.713722 -0.303905
vn 0.614564 0.731246 -0.295958
vn -0.109348 0.870931 0.479085
vn -0.109123 0.871500 0.478100
vn 0.295604 0.880465 0.370674
vn 0.295115 0.880887 0.370060
vn 0.466404 0.884572 0.000000
vn 0.466404 0.884572 0.000000
vn 0.295115 0.880887 -0.370062
vn 0.295604 0.880465 -0.370675
vn -0.109123 0.871502 -0.478097
vn -0.109348 0.870933 -0.479082
vn -0.455194 0.862986 -0.219211
vn -0.455610 0.862716 -0.219411
vn -0.455610 0.862716 0.219410
vn -0.455195 0.862986 0.219210
vn 0.000000 1.000000 0.000000
vn 0.000000 1.000000 0.000000
vn 0.000000 1.000000 0.000000
vn 0.000000 1.000000 0.000000
vn -0.406030 0.892696 0.195535
vn -0.406030 0.892696 0.195535
vn -0.406030 0.892696 -0.195537
vn -0.406030 0.892696 -0.195537
vn -0.097230 0.899489 -0.425989
vn -0.097230 0.899489 -0.425989
vn 0.262395 0.907130 -0.329034
vn 0.262395 0.907130 -0.329034
vn 0.414022 0.910267 0.000000
vn 0.414022 0.910267 0.000000
vn 0.262396 0.907130 0.329034
vn 0.262396 0.907130 0.329034
vn -0.097230 0.899487 0.425993
vn -0.097230 0.899487 0.425993
vn 0.000000 1.000000 0.000000
vn 0.000000 1.000000 0.000000
vn 0.000000 1.000000 0.000000
vn 0.222523 0.000000 -0.974927
vn 0.222523 0.000000 -0.974927
vn 0.220270 0.141908 -0.965061
vn 0.220222 0.143398 -0.964852
vn -0.623491 0.000000 -0.781830
vn -0.623491 0.000000 -0.781830
vn -0.616566 0.148628 -0.773147
vn -0.616449 0.149870 -0.773001
vn -1.000000 0.000000 0.000000
vn -1.000000 0.000000 0.000000
vn -0.988353 0.152180 0.000000
vn -0.988353 0.152180 0.000000
vn -0.623491 0.000000 0.781831
vn -0.623491 0.000000 0.781831
vn -0.616448 0.149871 0.773001
vn -0.616565 0.148629 0.773147
vn 0.222523 0.000000 0.974927
vn 0.222523 0.000000 0.974927
vn 0.220222 0.143398 0.964852
vn 0.220270 0.141908 0.965061
vn 0.900969 0.000000 0.433883
vn 0.900969 0.000000 0.433883
vn 0.892390 0.137674 0.429752
vn 0.892470 0.137033 0.429790
vn 0.900969 0.000000 -0.433884
vn 0.900969 0.000000 -0.433884
vn 0.892469 0.137033 -0.429791
vn 0.892389 0.137674 -0.429753
vn 0.205686 0.381545 -0.901175
vn 0.205153 0.387301 -0.898838
vn -0.572027 0.397828 -0.717299
vn -0.570759 0.402486 -0.715709
vn -0.913407 0.407047 0.000000
vn -0.913407 0.407047 0.000000
vn -0.570759 0.402486 0.715709
vn -0.572027 0.397829 0.717299
vn 0.205154 0.387301 0.898838
vn 0.205687 0.381545 0.901175
vn 0.836012 0.372822 0.402601
vn 0.836927 0.370284 0.403042
vn 0.836927 0.370284 -0.403043
vn 0.836012 0.372822 -0.402602
vn 0.217345 0.214442 -0.952248
vn 0.217605 0.209059 -0.953385
vn -0.607869 0.222456 -0.762240
vn -0.608485 0.218076 -0.763013
vn -0.974575 0.224062 0.000000
vn -0.974575 0.224062 0.000000
vn -0.608484 0.218077 0.763014
vn -0.607867 0.222457 0.762241
vn 0.217604 0.209058 0.953385
vn 0.217344 0.214442 0.952248
vn 0.882070 0.203748 0.424781
vn 0.881625 0.206111 0.424566
vn 0.881624 0.206112 -0.424567
vn 0.882070 0.203749 -0.424781
vn 0.214548 -0.265313 -0.939989
vn 0.214548 -0.265313 -0.939989
vn -0.599119 -0.276864 -0.751268
vn -0.599119 -0.276864 -0.751268
vn -0.959424 -0.281967 0.000000
vn -0.959424 -0.281967 0.000000
vn -0.599117 -0.276863 0.751270
vn -0.599117 -0.276863 0.751270
vn 0.214547 -0.265311 0.939989
vn 0.214547 -0.265311 0.939989
vn 0.870954 -0.255966 0.419428
vn 0.870954 -0.255966 0.419428
vn 0.870954 -0.255966 -0.419430
vn 0.870954 -0.255966 -0.419430
vn 0.000000 1.000000 0.000000
vn 0.000000 1.000000 0.000001
vn 0.000000 1.000000 -0.000000
vn 0.000000 1.000000 0.000002
vn 0.000000 1.000000 -0.000002
vn 0.000000 1.000000 -0.000002
vn 0.000000 1.000000 -0.000000
vn 0.000000 1.000000 0.000000
s 1
g pCylinder6
usemtl initialShadingGroup
f 1/1/1 2/2/2 9/3/3 8/4/4
s 2
f 2/2/5 3/5/6 10/6/7 9/3/8
s 3
f 3/5/9 4/7/10 11/8/11 10/6/12
s 4
f 4/7/13 5/9/14 12/10/15 11/8/16
s 5
f 5/9/17 6/11/18 13/12/19 12/10/20
s 6
f 6/11/21 7/13/22 14/14/23 13/12/24
s 7
f 7/13/25 1/1/26 8/4/27 14/14/28
s 1
f 8/4/4 9/3/3 16/15/29 15/16/30
s 2
f 9/3/8 10/6/7 17/17/31 16/15/32
s 3
f 10/6/12 11/8/11 18/18/33 17/17/34
s 4
f 11/8/16 12/10/15 19/19/35 18/18/36
s 5
f 12/10/20 13/12/19 20/20/37 19/19/38
s 6
f 13/12/24 14/14/23 21/21/39 20/20/40
s 7
f 14/14/28 8/4/27 15/16/41 21/21/42
s 1
f 15/16/30 16/15/29 35/36/43 29/23/44
s 2
f 16/15/32 17/17/31 34/38/45 35/36/46
s 3
f 17/17/34 18/18/33 33/39/47 34/38/48
s 4
f 18/18/36 19/19/35 32/40/49 33/39/50
s 5
f 19/19/38 20/20/37 31/41/51 32/40/52
s 6
f 20/20/40 21/21/39 30/42/53 31/41/54
s 7
f 21/21/42 15/16/41 29/23/55 30/42/56
s 8
f 28/29/57 22/44/58 23/49/59 24/32/60
s 7
f 30/28/56 29/37/55 22/30/61 28/43/62
s 6
f 31/27/54 30/28/53 28/43/63 27/33/64
s 5
f 32/26/52 31/27/51 27/33/65 26/34/66
s 4
f 33/25/50 32/26/49 26/34/67 25/47/68
s 3
f 34/24/48 33/25/47 25/47/69 24/48/70
s 2
f 35/22/46 34/24/45 24/48/71 23/31/72
s 1
f 29/37/44 35/22/43 23/31/73 22/30/74
s 8
f 28/29/57 25/35/75 26/46/76 27/45/77
f 28/29/57 24/32/60 25/35/75
s 9
f 36/50/78 37/51/79 44/52/80 43/53/81
s 10
f 37/51/82 38/54/83 45/55/84 44/52/85
s 11
f 38/54/86 39/56/87 46/57/88 45/55/89
s 12
f 39/56/90 40/58/91 47/59/92 46/57/93
s 13
f 40/58/94 41/60/95 48/61/96 47/59/97
s 14
f 41/60/98 42/62/99 49/63/100 48/61/101
s 15
f 42/62/102 36/50/103 43/53/104 49/63/105
s 9
f 43/53/81 44/52/80 51/64/106 50/65/107
s 10
f 44/52/85 45/55/84 52/66/108 51/64/109
s 11
f 45/55/89 46/57/88 53/67/110 52/66/111
s 12
f 46/57/93 47/59/92 54/68/112 53/67/113
s 13
f 47/59/97 48/61/96 55/69/114 54/68/115
s 14
f 48/61/101 49/63/100 56/70/116 55/69/117
s 15
f 49/63/105 43/53/104 50/65/118 56/70/119
s 9
f 50/65/107 51/64/106 58/71/120 57/72/121
s 10
f 51/64/109 52/66/108 59/73/122 58/71/123
s 11
f 52/66/111 53/67/110 60/74/124 59/73/125
s 12
f 53/67/113 54/68/112 61/75/126 60/74/127
s 13
f 54/68/115 55/69/114 62/76/128 61/75/129
s 14
f 55/69/117 56/70/116 63/77/130 62/76/131
s 15
f 56/70/119 50/65/118 57/72/132 63/77/133
s 9
f 57/72/121 58/71/120 65/78/134 64/79/135
s 10
f 58/71/123 59/73/122 66/80/136 65/78/137
s 11
f 59/73/125 60/74/124 67/81/138 66/80/139
s 12
f 60/74/127 61/75/126 68/82/140 67/81/141
s 13
f 61/75/129 62/76/128 69/83/142 68/82/143
s 14
f 62/76/131 63/77/130 70/84/144 69/83/145
s 15
f 63/77/133 57/72/132 64/79/146 70/84/147
s 16
f 64/79/148 65/78/149 71/85/150
f 65/78/149 66/80/151 71/85/150
f 66/80/151 67/81/152 71/85/150
f 67/81/152 68/82/153 71/85/150
f 68/82/153 69/83/154 71/85/150
f 69/83/154 70/84/155 71/85/150
f 70/84/155 64/79/148 71/85/150
