# This file uses centimeters as units for non-parametric coordinates.

mtllib Rock2.mtl
g default
v -0.861720 0.011417 0.325104
v 0.861720 0.022375 0.325104
v -1.006895 0.661918 0.325104
v 0.861720 0.723806 0.325104
v -0.861720 0.723806 -0.325104
v -0.861720 0.011447 -0.325104
v 0.861720 0.011422 -0.325104
v -1.087279 0.813183 0.000000
v 1.163321 0.398702 -0.438891
v 0.000000 0.011035 -0.438891
v -1.163321 0.398702 -0.438891
v 1.163321 0.020212 0.000000
v -1.163321 0.011035 0.000000
v 0.000000 0.011035 0.438891
v 1.163321 0.398702 0.438891
v -0.124400 0.827091 0.438891
v -1.163321 0.398702 0.438891
v 1.265404 0.693704 0.000000
v 0.000000 0.717712 -0.438891
v 0.000000 0.398702 0.585187
v 0.093208 0.948181 0.000000
v 0.000000 0.398702 -0.585187
v 1.473432 0.398702 0.000000
vt 0.116393 0.221544
vt 0.075994 0.138974
vt 0.024052 0.457459
vt 0.075994 0.457459
vt 0.116393 0.221544
vt 0.075994 0.457459
vt 0.116393 0.693374
vt 0.075994 0.775944
vt 0.116393 0.693374
vt 0.231820 0.882106
vt 0.231820 0.775944
vt 0.231820 0.775944
vt 0.387646 0.775944
vt 0.347247 0.693374
vt 0.439588 0.457459
vt 0.387646 0.457459
vt 0.387646 0.457459
vt 0.347247 0.221544
vt 0.387646 0.138974
vt 0.347247 0.221544
vt 0.231820 0.138974
vt 0.231820 0.138974
vt 0.231820 0.457459
vn -0.124874 -0.852219 0.508064
vn 0.000019 -0.501897 0.864928
vn 0.004910 0.002719 0.999984
vn -0.385005 -0.009251 0.922868
vn 0.199593 -0.832302 0.517141
vn 0.343530 -0.004836 0.939129
vn 0.243354 0.742180 0.624457
vn -0.009013 0.748494 0.663080
vn -0.209067 0.705156 0.677530
vn 0.033891 0.997563 -0.060983
vn -0.354001 0.934617 -0.034262
vn 0.364501 0.929510 -0.056133
vn 0.017706 0.728408 -0.684915
vn -0.149774 0.754555 -0.638917
vn -0.013857 -0.053794 -0.998456
vn -0.393174 0.011872 -0.919387
vn 0.353780 0.021376 -0.935084
vn 0.199091 -0.838017 -0.508026
vn -0.000000 -0.494476 -0.869191
vn -0.127028 -0.853593 -0.505216
vn 0.577865 -0.816132 0.000641
vn 0.969208 -0.212026 0.125225
vn -0.745415 -0.666601 -0.000012
s 1
g pCube3
usemtl initialShadingGroup
f 1/1/1 14/2/2 20/3/3 17/4/4
f 14/2/2 2/5/5 15/6/6 20/3/3
f 20/3/3 15/6/6 4/7/7 16/8/8
f 17/4/4 20/3/3 16/8/8 3/9/9
f 3/9/9 16/8/8 21/10/10 8/11/11
f 16/8/8 4/7/7 18/12/12 21/10/10
f 8/11/11 21/10/10 19/13/13 5/14/14
f 5/14/14 19/13/13 22/15/15 11/16/16
f 9/17/17 19/13/13 21/10/10
f 22/15/15 9/17/17 7/18/18 10/19/19
f 11/16/16 22/15/15 10/19/19 6/20/20
f 2/5/5 1/1/1 7/18/18
f 2/5/5 12/22/21 23/23/22 15/6/6
f 12/22/21 7/18/18 9/17/17 23/23/22
f 15/6/6 23/23/22 18/12/12 4/7/7
f 17/4/4 11/16/16 13/21/23
f 9/17/17 18/12/12 23/23/22
f 9/17/17 22/15/15 19/13/13
f 9/17/17 21/10/10 18/12/12
f 7/18/18 6/20/20 10/19/19
f 7/18/18 1/1/1 6/20/20
f 2/5/5 7/18/18 12/22/21
f 14/2/2 1/1/1 2/5/5
f 6/20/20 1/1/1 13/21/23
f 8/11/11 5/14/14 11/16/16
f 13/21/23 11/16/16 6/20/20
f 17/4/4 13/21/23 1/1/1
f 8/11/11 17/4/4 3/9/9
f 8/11/11 11/16/16 17/4/4
