# This file uses centimeters as units for non-parametric coordinates.

mtllib Stool.mtl
g default
v 1.905951 1.491950 -0.551758
v 1.308900 1.491950 -0.688032
v 0.830102 1.491950 -0.306203
v 0.830102 1.491950 0.306203
v 1.308900 1.491950 0.688032
v 1.905951 1.491950 0.551758
v 2.171664 1.491950 0.000000
v 1.794128 1.662877 -0.399440
v 1.361899 1.662877 -0.498093
v 1.015278 1.662877 -0.221672
v 1.015278 1.662877 0.221672
v 1.361899 1.662877 0.498093
v 1.794128 1.662877 0.399440
v 1.986488 1.662877 0.000000
v 1.465938 1.491950 0.000000
v 1.465938 1.662877 0.000000
v 1.905951 1.577413 -0.551758
v 1.308900 1.577413 -0.688032
v 0.830102 1.577413 -0.306203
v 0.830102 1.577413 0.306203
v 1.308900 1.577413 0.688032
v 1.905951 1.577413 0.551758
v 2.171664 1.577413 0.000000
v 1.214021 -0.386737 -0.252174
v 1.261504 -0.386737 -0.267012
v 1.280034 -0.386737 -0.312821
v 1.255656 -0.386736 -0.355106
v 1.206728 -0.386736 -0.362025
v 1.170094 -0.386736 -0.328369
v 1.173339 -0.386737 -0.279480
v 1.245680 0.248173 -0.197258
v 1.293164 0.243595 -0.212096
v 1.311693 0.256421 -0.257906
v 1.287316 0.276992 -0.300190
v 1.238388 0.289817 -0.307110
v 1.201753 0.285240 -0.273453
v 1.204999 0.266706 -0.224565
v 1.267987 0.939985 -0.192509
v 1.315580 0.939985 -0.207157
v 1.333802 0.939985 -0.253500
v 1.308931 0.939985 -0.296640
v 1.259696 0.939985 -0.304093
v 1.223171 0.939985 -0.270246
v 1.226861 0.939985 -0.220586
v 1.267987 1.606652 -0.192509
v 1.315580 1.606652 -0.207157
v 1.333802 1.606652 -0.253500
v 1.308931 1.606652 -0.296640
v 1.259696 1.606652 -0.304093
v 1.223171 1.606652 -0.270246
v 1.226861 1.606652 -0.220586
v 1.700689 -0.386737 -0.308233
v 1.732437 -0.386737 -0.269933
v 1.781851 -0.386737 -0.270174
v 1.811722 -0.386736 -0.308776
v 1.799555 -0.386736 -0.356669
v 1.754513 -0.386736 -0.377790
v 1.710514 -0.386737 -0.356234
v 1.661896 0.248173 -0.258101
v 1.693645 0.243595 -0.219801
v 1.743059 0.256421 -0.220042
v 1.772929 0.276992 -0.258644
v 1.760762 0.289817 -0.306537
v 1.715721 0.285240 -0.327658
v 1.671721 0.266706 -0.306102
v 1.665968 0.939985 -0.235661
v 1.697582 0.939985 -0.197187
v 1.747373 0.939985 -0.197916
v 1.777848 0.939985 -0.237298
v 1.766058 0.939985 -0.285679
v 1.720881 0.939985 -0.306626
v 1.676337 0.939985 -0.284366
v 1.665968 1.606652 -0.235661
v 1.697582 1.606652 -0.197187
v 1.747373 1.606652 -0.197916
v 1.777848 1.606652 -0.237298
v 1.766058 1.606652 -0.285679
v 1.720881 1.606652 -0.306626
v 1.676337 1.606652 -0.284366
v 1.775684 -0.386737 0.256921
v 1.728200 -0.386737 0.271759
v 1.709671 -0.386737 0.317568
v 1.734048 -0.386736 0.359854
v 1.782976 -0.386736 0.366773
v 1.819611 -0.386736 0.333116
v 1.816365 -0.386737 0.284227
v 1.744025 0.248173 0.202005
v 1.696541 0.243595 0.216844
v 1.678011 0.256421 0.262653
v 1.702389 0.276992 0.304938
v 1.751317 0.289817 0.311857
v 1.787951 0.285240 0.278200
v 1.784706 0.266706 0.229312
v 1.721718 0.939985 0.197256
v 1.674124 0.939985 0.211904
v 1.655902 0.939985 0.258247
v 1.680773 0.939985 0.301387
v 1.730009 0.939985 0.308840
v 1.766534 0.939985 0.274993
v 1.762844 0.939985 0.225334
v 1.721718 1.606652 0.197256
v 1.674124 1.606652 0.211904
v 1.655902 1.606652 0.258247
v 1.680773 1.606652 0.301387
v 1.730009 1.606652 0.308840
v 1.766534 1.606652 0.274993
v 1.762844 1.606652 0.225334
v 1.289015 -0.386737 0.312980
v 1.257267 -0.386737 0.274680
v 1.207853 -0.386737 0.274922
v 1.177983 -0.386736 0.313523
v 1.190150 -0.386736 0.361416
v 1.235191 -0.386736 0.382537
v 1.279191 -0.386737 0.360981
v 1.327808 0.248173 0.262848
v 1.296060 0.243595 0.224548
v 1.246646 0.256421 0.224790
v 1.216776 0.276992 0.263391
v 1.228942 0.289817 0.311285
v 1.273984 0.285240 0.332406
v 1.317983 0.266706 0.310849
v 1.323736 0.939985 0.240408
v 1.292122 0.939985 0.201934
v 1.242331 0.939985 0.202663
v 1.211857 0.939985 0.242045
v 1.223647 0.939985 0.290426
v 1.268823 0.939985 0.311373
v 1.313367 0.939985 0.289113
v 1.323736 1.606652 0.240408
v 1.292122 1.606652 0.201934
v 1.242331 1.606652 0.202663
v 1.211857 1.606652 0.242045
v 1.223647 1.606652 0.290426
v 1.268823 1.606652 0.311373
v 1.313367 1.606652 0.289113
vt 0.691153 0.163891
vt 0.631042 0.177267
vt 0.631042 0.177267
vt 0.691153 0.163891
vt 0.582837 0.139788
vt 0.582837 0.139788
vt 0.582837 0.079678
vt 0.582837 0.079678
vt 0.631042 0.042199
vt 0.631042 0.042199
vt 0.691153 0.055575
vt 0.691153 0.055575
vt 0.717905 0.109733
vt 0.717905 0.109733
vt 0.646853 0.109733
vt 0.646853 0.109733
vt 0.691153 0.163891
vt 0.631042 0.177267
vt 0.582837 0.139788
vt 0.582837 0.079678
vt 0.631042 0.042199
vt 0.691153 0.055575
vt 0.717905 0.109733
vt 0.440804 0.564578
vt 0.419591 0.564578
vt 0.405447 0.696697
vt 0.426661 0.697656
vt 0.411313 0.564578
vt 0.397169 0.699385
vt 0.422204 0.564578
vt 0.408060 0.703697
vt 0.444062 0.564578
vt 0.429918 0.706385
vt 0.460428 0.564578
vt 0.446285 0.705426
vt 0.458979 0.564578
vt 0.444835 0.701541
vt 0.395433 0.842661
vt 0.416695 0.842661
vt 0.387292 0.842661
vt 0.398403 0.842661
vt 0.420399 0.842661
vt 0.436716 0.842661
vt 0.435068 0.842661
vt 0.395433 0.982397
vt 0.416695 0.982397
vt 0.387292 0.982397
vt 0.398403 0.982397
vt 0.420399 0.982397
vt 0.436716 0.982397
vt 0.435068 0.982397
vt 0.366840 0.564578
vt 0.352657 0.564578
vt 0.369987 0.696697
vt 0.384171 0.697656
vt 0.330581 0.564578
vt 0.347912 0.699385
vt 0.317237 0.564578
vt 0.334567 0.703697
vt 0.322672 0.564578
vt 0.340003 0.706385
vt 0.342795 0.564578
vt 0.360125 0.705426
vt 0.362451 0.564578
vt 0.379782 0.701541
vt 0.368228 0.842661
vt 0.382352 0.842661
vt 0.345984 0.842661
vt 0.332370 0.842661
vt 0.337637 0.842661
vt 0.357819 0.842661
vt 0.377719 0.842661
vt 0.368228 0.982397
vt 0.382352 0.982397
vt 0.345984 0.982397
vt 0.332370 0.982397
vt 0.337637 0.982397
vt 0.357819 0.982397
vt 0.377719 0.982397
vt 0.440804 0.564578
vt 0.419591 0.564578
vt 0.405447 0.696697
vt 0.426661 0.697656
vt 0.411313 0.564578
vt 0.397169 0.699385
vt 0.422204 0.564578
vt 0.408060 0.703697
vt 0.444062 0.564578
vt 0.429918 0.706385
vt 0.460428 0.564578
vt 0.446285 0.705426
vt 0.458979 0.564578
vt 0.444835 0.701541
vt 0.395433 0.842661
vt 0.416695 0.842661
vt 0.387292 0.842661
vt 0.398403 0.842661
vt 0.420399 0.842661
vt 0.436716 0.842661
vt 0.435068 0.842661
vt 0.395433 0.982397
vt 0.416695 0.982397
vt 0.387292 0.982397
vt 0.398403 0.982397
vt 0.420399 0.982397
vt 0.436716 0.982397
vt 0.435068 0.982397
vt 0.366840 0.564578
vt 0.352657 0.564578
vt 0.369987 0.696697
vt 0.384171 0.697656
vt 0.330581 0.564578
vt 0.347912 0.699385
vt 0.317237 0.564578
vt 0.334567 0.703697
vt 0.322672 0.564578
vt 0.340003 0.706385
vt 0.342795 0.564578
vt 0.360125 0.705426
vt 0.362451 0.564578
vt 0.379782 0.701541
vt 0.368228 0.842661
vt 0.382352 0.842661
vt 0.345984 0.842661
vt 0.332370 0.842661
vt 0.337637 0.842661
vt 0.357819 0.842661
vt 0.377719 0.842661
vt 0.368228 0.982397
vt 0.382352 0.982397
vt 0.345984 0.982397
vt 0.332370 0.982397
vt 0.337637 0.982397
vt 0.357819 0.982397
vt 0.377719 0.982397
vn 0.173290 0.627324 -0.759233
vn 0.176176 0.610876 -0.771876
vn 0.098382 0.896954 -0.431040
vn 0.098382 0.896954 -0.431040
vn -0.476167 0.645557 -0.597094
vn -0.482660 0.633030 -0.605237
vn -0.265559 0.904759 -0.333001
vn -0.265559 0.904759 -0.333001
vn -0.761694 0.647937 0.000000
vn -0.761694 0.647937 0.000000
vn -0.419049 0.907964 0.000000
vn -0.419049 0.907964 0.000000
vn -0.482661 0.633030 0.605237
vn -0.476167 0.645557 0.597094
vn -0.265559 0.904759 0.333001
vn -0.265559 0.904759 0.333001
vn 0.176175 0.610877 0.771876
vn 0.173290 0.627324 0.759233
vn 0.098382 0.896954 0.431040
vn 0.098382 0.896954 0.431040
vn 0.721926 0.598294 0.347661
vn 0.716749 0.605913 0.345167
vn 0.410769 0.890021 0.197816
vn 0.410769 0.890021 0.197816
vn 0.716749 0.605913 -0.345168
vn 0.721926 0.598294 -0.347661
vn 0.410769 0.890021 -0.197816
vn 0.410769 0.890021 -0.197816
vn 0.000000 -1.000000 0.000000
vn 0.000000 -1.000000 0.000000
vn 0.000000 -1.000000 0.000000
vn 0.000000 -1.000000 0.000000
vn 0.000000 -1.000000 0.000000
vn 0.000000 -1.000000 0.000000
vn 0.000000 -1.000000 0.000000
vn 0.000000 -1.000000 0.000000
vn 0.000000 1.000000 0.000000
vn 0.000000 1.000000 0.000000
vn 0.000000 1.000000 0.000000
vn 0.000000 1.000000 0.000000
vn 0.000000 1.000000 0.000000
vn 0.000000 1.000000 0.000000
vn 0.000000 1.000000 -0.000000
vn 0.000000 1.000000 0.000000
vn 0.222521 0.000000 -0.974928
vn 0.222521 0.000000 -0.974928
vn -0.623490 0.000000 -0.781831
vn -0.623490 0.000000 -0.781831
vn -1.000000 0.000000 0.000000
vn -1.000000 0.000000 0.000000
vn -0.623490 0.000000 0.781831
vn -0.623490 0.000000 0.781831
vn 0.222521 0.000000 0.974928
vn 0.222521 0.000000 0.974928
vn 0.900969 0.000000 0.433883
vn 0.900969 0.000000 0.433883
vn 0.900969 0.000000 -0.433883
vn 0.900969 0.000000 -0.433883
vn 0.292580 -0.097220 0.951286
vn 0.292580 -0.097220 0.951286
vn 0.294264 -0.056656 0.954044
vn 0.294383 -0.053238 0.954204
vn 0.927968 -0.077575 0.364496
vn 0.927968 -0.077575 0.364496
vn 0.929343 -0.051061 0.365670
vn 0.929068 -0.057542 0.365407
vn 0.866342 -0.000000 -0.499451
vn 0.866342 -0.000000 -0.499451
vn 0.864638 -0.015333 -0.502161
vn 0.865266 -0.009907 -0.501216
vn 0.149115 0.073760 -0.986065
vn 0.149115 0.073760 -0.986065
vn 0.146849 0.032579 -0.988622
vn 0.147408 0.042328 -0.988170
vn -0.676808 0.091273 -0.730480
vn -0.676808 0.091273 -0.730480
vn -0.678078 0.061092 -0.732447
vn -0.678195 0.057262 -0.732648
vn -0.996396 0.041469 0.074003
vn -0.996396 0.041469 0.074003
vn -0.996479 0.037743 0.074862
vn -0.996516 0.035857 0.075297
vn -0.563487 -0.042640 0.825024
vn -0.563487 -0.042640 0.825024
vn -0.561662 -0.019635 0.827134
vn -0.560714 -0.008969 0.827961
vn 0.294818 -0.008185 0.955519
vn 0.294830 -0.008333 0.955514
vn 0.930397 -0.016461 0.366184
vn 0.930396 -0.016518 0.366185
vn 0.864952 -0.012643 -0.501696
vn 0.864972 -0.012473 -0.501666
vn 0.147274 0.000106 -0.989096
vn 0.147324 0.000104 -0.989088
vn -0.679301 0.012802 -0.733748
vn -0.679307 0.012632 -0.733746
vn -0.997046 0.015912 0.075141
vn -0.997044 0.015991 0.075146
vn -0.561225 0.006391 0.827639
vn -0.561174 0.006514 0.827672
vn 0.294145 0.000000 0.955761
vn 0.294145 0.000000 0.955761
vn 0.930643 0.000000 0.365928
vn 0.930643 0.000000 0.365928
vn 0.866341 0.000000 -0.499453
vn 0.866341 0.000000 -0.499453
vn 0.149667 0.000000 -0.988736
vn 0.149667 0.000000 -0.988736
vn -0.679709 0.000000 -0.733482
vn -0.679709 0.000000 -0.733482
vn -0.997250 0.000000 0.074109
vn -0.997250 0.000000 0.074109
vn -0.563845 0.000000 0.825881
vn -0.563845 0.000000 0.825881
vn -0.000002 -1.000000 -0.000004
vn -0.000002 -1.000000 -0.000004
vn -0.000002 -1.000000 -0.000004
vn -0.000002 -1.000000 -0.000004
vn -0.000002 -1.000000 -0.000004
vn -0.000002 -1.000000 -0.000004
vn -0.000002 -1.000000 -0.000004
vn 0.000000 1.000000 0.000001
vn 0.000000 1.000000 0.000001
vn 0.000000 1.000000 0.000001
vn 0.000000 1.000000 0.000001
vn 0.000000 1.000000 0.000001
vn 0.000000 1.000000 0.000001
vn 0.000000 1.000000 0.000001
vn -0.769085 -0.097221 0.631710
vn -0.769085 -0.097221 0.631710
vn -0.770996 -0.056656 0.634315
vn -0.771098 -0.053238 0.634487
vn 0.014941 -0.077576 0.996875
vn 0.014941 -0.077576 0.996875
vn 0.014375 -0.051061 0.998592
vn 0.014514 -0.057543 0.998238
vn 0.790868 0.000000 0.611986
vn 0.790868 0.000000 0.611986
vn 0.792732 -0.015333 0.609378
vn 0.792095 -0.009907 0.610318
vn 0.968887 0.073760 -0.236258
vn 0.968887 0.073760 -0.236258
vn 0.970393 0.032579 -0.239324
vn 0.970186 0.042328 -0.238635
vn 0.418982 0.091273 -0.903396
vn 0.418982 0.091273 -0.903396
vn 0.420319 0.061092 -0.905317
vn 0.420461 0.057262 -0.905502
vn -0.446607 0.041468 -0.893769
vn -0.446608 0.041468 -0.893769
vn -0.447432 0.037742 -0.893521
vn -0.447847 0.035857 -0.893391
vn -0.977150 -0.042639 -0.208232
vn -0.977150 -0.042639 -0.208232
vn -0.978410 -0.019635 -0.205740
vn -0.978815 -0.008968 -0.204548
vn -0.772147 -0.008185 0.635391
vn -0.772138 -0.008333 0.635400
vn 0.014299 -0.016461 0.999762
vn 0.014298 -0.016518 0.999761
vn 0.792423 -0.012643 0.609842
vn 0.792403 -0.012473 0.609871
vn 0.970993 0.000106 -0.239110
vn 0.971005 0.000104 -0.239061
vn 0.421057 0.012802 -0.906944
vn 0.421052 0.012632 -0.906949
vn -0.447900 0.015912 -0.893942
vn -0.447904 0.015991 -0.893939
vn -0.978712 0.006391 -0.205140
vn -0.978724 0.006514 -0.205080
vn -0.772625 0.000000 0.634863
vn -0.772625 0.000000 0.634863
vn 0.014630 0.000000 0.999893
vn 0.014630 0.000000 0.999893
vn 0.790875 0.000000 0.611977
vn 0.790875 0.000000 0.611977
vn 0.971568 0.000000 -0.236760
vn 0.971568 0.000000 -0.236760
vn 0.420654 0.000000 -0.907221
vn 0.420654 0.000000 -0.907221
vn -0.447021 0.000000 -0.894524
vn -0.447021 0.000000 -0.894524
vn -0.978080 0.000000 -0.208229
vn -0.978080 0.000000 -0.208229
vn 0.000003 -1.000000 -0.000003
vn 0.000003 -1.000000 -0.000003
vn 0.000003 -1.000000 -0.000003
vn 0.000003 -1.000000 -0.000003
vn 0.000003 -1.000000 -0.000003
vn 0.000003 -1.000000 -0.000003
vn 0.000003 -1.000000 -0.000003
vn 0.000000 1.000000 0.000001
vn 0.000000 1.000000 0.000001
vn 0.000000 1.000000 0.000001
vn 0.000000 1.000000 0.000001
vn 0.000000 1.000000 0.000001
vn 0.000000 1.000000 0.000001
vn 0.000000 1.000000 0.000001
vn -0.292580 -0.097220 -0.951286
vn -0.292580 -0.097220 -0.951286
vn -0.294263 -0.056656 -0.954044
vn -0.294383 -0.053238 -0.954204
vn -0.927968 -0.077575 -0.364496
vn -0.927968 -0.077575 -0.364496
vn -0.929343 -0.051061 -0.365670
vn -0.929068 -0.057542 -0.365407
vn -0.866343 0.000000 0.499450
vn -0.866342 0.000000 0.499451
vn -0.864638 -0.015333 0.502161
vn -0.865266 -0.009907 0.501216
vn -0.149115 0.073760 0.986065
vn -0.149115 0.073760 0.986065
vn -0.146849 0.032579 0.988622
vn -0.147408 0.042328 0.988170
vn 0.676808 0.091273 0.730480
vn 0.676808 0.091273 0.730479
vn 0.678078 0.061092 0.732447
vn 0.678195 0.057262 0.732648
vn 0.996396 0.041468 -0.074003
vn 0.996396 0.041468 -0.074003
vn 0.996479 0.037743 -0.074862
vn 0.996516 0.035857 -0.075297
vn 0.563487 -0.042639 -0.825024
vn 0.563487 -0.042639 -0.825024
vn 0.561662 -0.019635 -0.827134
vn 0.560714 -0.008969 -0.827961
vn -0.294818 -0.008185 -0.955519
vn -0.294830 -0.008333 -0.955513
vn -0.930397 -0.016461 -0.366184
vn -0.930396 -0.016518 -0.366185
vn -0.864952 -0.012643 0.501696
vn -0.864972 -0.012473 0.501666
vn -0.147273 0.000106 0.989096
vn -0.147324 0.000104 0.989088
vn 0.679301 0.012802 0.733748
vn 0.679307 0.012632 0.733746
vn 0.997046 0.015912 -0.075141
vn 0.997044 0.015991 -0.075146
vn 0.561225 0.006391 -0.827639
vn 0.561174 0.006514 -0.827672
vn -0.294146 0.000000 -0.955761
vn -0.294146 0.000000 -0.955761
vn -0.930643 0.000000 -0.365928
vn -0.930643 0.000000 -0.365928
vn -0.866341 0.000000 0.499453
vn -0.866341 0.000000 0.499453
vn -0.149667 0.000000 0.988737
vn -0.149667 0.000000 0.988737
vn 0.679709 0.000000 0.733482
vn 0.679709 0.000000 0.733482
vn 0.997250 0.000000 -0.074109
vn 0.997250 0.000000 -0.074109
vn 0.563845 0.000000 -0.825881
vn 0.563845 0.000000 -0.825881
vn 0.000002 -1.000000 0.000004
vn 0.000002 -1.000000 0.000004
vn 0.000002 -1.000000 0.000004
vn 0.000002 -1.000000 0.000004
vn 0.000002 -1.000000 0.000004
vn 0.000002 -1.000000 0.000004
vn 0.000002 -1.000000 0.000004
vn 0.000000 1.000000 -0.000001
vn 0.000000 1.000000 -0.000001
vn 0.000000 1.000000 -0.000001
vn 0.000000 1.000000 -0.000001
vn 0.000000 1.000000 -0.000001
vn 0.000000 1.000000 -0.000001
vn 0.000000 1.000000 -0.000001
vn 0.769084 -0.097220 -0.631710
vn 0.769084 -0.097220 -0.631710
vn 0.770995 -0.056656 -0.634316
vn 0.771098 -0.053238 -0.634487
vn -0.014940 -0.077575 -0.996875
vn -0.014940 -0.077575 -0.996875
vn -0.014375 -0.051061 -0.998592
vn -0.014514 -0.057543 -0.998238
vn -0.790868 0.000000 -0.611986
vn -0.790868 0.000000 -0.611986
vn -0.792732 -0.015333 -0.609378
vn -0.792095 -0.009907 -0.610318
vn -0.968887 0.073760 0.236258
vn -0.968887 0.073760 0.236258
vn -0.970393 0.032579 0.239324
vn -0.970186 0.042328 0.238635
vn -0.418982 0.091273 0.903396
vn -0.418982 0.091273 0.903395
vn -0.420319 0.061092 0.905317
vn -0.420461 0.057262 0.905502
vn 0.446607 0.041468 0.893769
vn 0.446608 0.041468 0.893769
vn 0.447432 0.037742 0.893521
vn 0.447847 0.035856 0.893391
vn 0.977150 -0.042639 0.208232
vn 0.977150 -0.042639 0.208232
vn 0.978410 -0.019635 0.205740
vn 0.978815 -0.008968 0.204548
vn 0.772147 -0.008185 -0.635391
vn 0.772138 -0.008333 -0.635400
vn -0.014299 -0.016461 -0.999762
vn -0.014298 -0.016518 -0.999761
vn -0.792422 -0.012643 -0.609842
vn -0.792403 -0.012473 -0.609871
vn -0.970993 0.000106 0.239110
vn -0.971005 0.000104 0.239061
vn -0.421057 0.012802 0.906944
vn -0.421052 0.012632 0.906949
vn 0.447900 0.015912 0.893942
vn 0.447904 0.015991 0.893939
vn 0.978712 0.006391 0.205140
vn 0.978724 0.006514 0.205080
vn 0.772625 0.000000 -0.634863
vn 0.772625 0.000000 -0.634863
vn -0.014631 0.000000 -0.999893
vn -0.014631 0.000000 -0.999893
vn -0.790875 0.000000 -0.611978
vn -0.790875 0.000000 -0.611978
vn -0.971568 0.000000 0.236760
vn -0.971568 0.000000 0.236760
vn -0.420653 0.000000 0.907222
vn -0.420653 0.000000 0.907222
vn 0.447020 0.000000 0.894524
vn 0.447020 0.000000 0.894524
vn 0.978080 0.000000 0.208229
vn 0.978080 0.000000 0.208229
vn -0.000003 -1.000000 0.000003
vn -0.000003 -1.000000 0.000003
vn -0.000003 -1.000000 0.000003
vn -0.000003 -1.000000 0.000003
vn -0.000003 -1.000000 0.000003
vn -0.000003 -1.000000 0.000003
vn -0.000003 -1.000000 0.000003
vn 0.000000 1.000000 -0.000001
vn 0.000000 1.000000 -0.000001
vn 0.000000 1.000000 -0.000001
vn 0.000000 1.000000 -0.000001
vn 0.000000 1.000000 -0.000001
vn 0.000000 1.000000 -0.000001
vn 0.000000 1.000000 -0.000001
s 1
g Bar:Bar:pCylinder1
usemtl initialShadingGroup
f 17/17/1 18/18/2 9/3/3 8/4/4
s 2
f 18/18/5 19/19/6 10/6/7 9/3/8
s 3
f 19/19/9 20/20/10 11/8/11 10/6/12
s 4
f 20/20/13 21/21/14 12/10/15 11/8/16
s 5
f 21/21/17 22/22/18 13/12/19 12/10/20
s 6
f 22/22/21 23/23/22 14/14/23 13/12/24
s 7
f 23/23/25 17/17/26 8/4/27 14/14/28
s 8
f 2/2/29 1/1/30 15/15/31
f 3/5/32 2/2/29 15/15/31
f 4/7/33 3/5/32 15/15/31
f 5/9/34 4/7/33 15/15/31
f 6/11/35 5/9/34 15/15/31
f 7/13/36 6/11/35 15/15/31
f 1/1/30 7/13/36 15/15/31
s 9
f 8/4/37 9/3/38 16/16/39
f 9/3/38 10/6/40 16/16/39
f 10/6/40 11/8/41 16/16/39
f 11/8/41 12/10/42 16/16/39
f 12/10/42 13/12/43 16/16/39
f 13/12/43 14/14/44 16/16/39
f 14/14/44 8/4/37 16/16/39
s 1
f 1/1/45 2/2/46 18/18/2 17/17/1
s 2
f 2/2/47 3/5/48 19/19/6 18/18/5
s 3
f 3/5/49 4/7/50 20/20/10 19/19/9
s 4
f 4/7/51 5/9/52 21/21/14 20/20/13
s 5
f 5/9/53 6/11/54 22/22/18 21/21/17
s 6
f 6/11/55 7/13/56 23/23/22 22/22/21
s 7
f 7/13/57 1/1/58 17/17/26 23/23/25
s 10
f 24/24/59 25/25/60 32/26/61 31/27/62
s 11
f 25/25/63 26/28/64 33/29/65 32/26/66
s 12
f 26/28/67 27/30/68 34/31/69 33/29/70
s 13
f 27/30/71 28/32/72 35/33/73 34/31/74
s 14
f 28/32/75 29/34/76 36/35/77 35/33/78
s 15
f 29/34/79 30/36/80 37/37/81 36/35/82
s 16
f 30/36/83 24/24/84 31/27/85 37/37/86
s 10
f 31/27/62 32/26/61 39/38/87 38/39/88
s 11
f 32/26/66 33/29/65 40/40/89 39/38/90
s 12
f 33/29/70 34/31/69 41/41/91 40/40/92
s 13
f 34/31/74 35/33/73 42/42/93 41/41/94
s 14
f 35/33/78 36/35/77 43/43/95 42/42/96
s 15
f 36/35/82 37/37/81 44/44/97 43/43/98
s 16
f 37/37/86 31/27/85 38/39/99 44/44/100
s 10
f 38/39/88 39/38/87 46/45/101 45/46/102
s 11
f 39/38/90 40/40/89 47/47/103 46/45/104
s 12
f 40/40/92 41/41/91 48/48/105 47/47/106
s 13
f 41/41/94 42/42/93 49/49/107 48/48/108
s 14
f 42/42/96 43/43/95 50/50/109 49/49/110
s 15
f 43/43/98 44/44/97 51/51/111 50/50/112
s 16
f 44/44/100 38/39/99 45/46/113 51/51/114
s off
f 29/34/115 28/32/116 27/30/117 26/28/118 25/25/119 24/24/120 30/36/121
f 51/51/122 45/46/123 46/45/124 47/47/125 48/48/126 49/49/127 50/50/128
s 17
f 52/52/129 53/53/130 60/54/131 59/55/132
s 18
f 53/53/133 54/56/134 61/57/135 60/54/136
s 19
f 54/56/137 55/58/138 62/59/139 61/57/140
s 20
f 55/58/141 56/60/142 63/61/143 62/59/144
s 21
f 56/60/145 57/62/146 64/63/147 63/61/148
s 22
f 57/62/149 58/64/150 65/65/151 64/63/152
s 23
f 58/64/153 52/52/154 59/55/155 65/65/156
s 17
f 59/55/132 60/54/131 67/66/157 66/67/158
s 18
f 60/54/136 61/57/135 68/68/159 67/66/160
s 19
f 61/57/140 62/59/139 69/69/161 68/68/162
s 20
f 62/59/144 63/61/143 70/70/163 69/69/164
s 21
f 63/61/148 64/63/147 71/71/165 70/70/166
s 22
f 64/63/152 65/65/151 72/72/167 71/71/168
s 23
f 65/65/156 59/55/155 66/67/169 72/72/170
s 17
f 66/67/158 67/66/157 74/73/171 73/74/172
s 18
f 67/66/160 68/68/159 75/75/173 74/73/174
s 19
f 68/68/162 69/69/161 76/76/175 75/75/176
s 20
f 69/69/164 70/70/163 77/77/177 76/76/178
s 21
f 70/70/166 71/71/165 78/78/179 77/77/180
s 22
f 71/71/168 72/72/167 79/79/181 78/78/182
s 23
f 72/72/170 66/67/169 73/74/183 79/79/184
s off
f 57/62/185 56/60/186 55/58/187 54/56/188 53/53/189 52/52/190 58/64/191
f 79/79/192 73/74/193 74/73/194 75/75/195 76/76/196 77/77/197 78/78/198
s 24
f 80/80/199 81/81/200 88/82/201 87/83/202
s 25
f 81/81/203 82/84/204 89/85/205 88/82/206
s 26
f 82/84/207 83/86/208 90/87/209 89/85/210
s 27
f 83/86/211 84/88/212 91/89/213 90/87/214
s 28
f 84/88/215 85/90/216 92/91/217 91/89/218
s 29
f 85/90/219 86/92/220 93/93/221 92/91/222
s 30
f 86/92/223 80/80/224 87/83/225 93/93/226
s 24
f 87/83/202 88/82/201 95/94/227 94/95/228
s 25
f 88/82/206 89/85/205 96/96/229 95/94/230
s 26
f 89/85/210 90/87/209 97/97/231 96/96/232
s 27
f 90/87/214 91/89/213 98/98/233 97/97/234
s 28
f 91/89/218 92/91/217 99/99/235 98/98/236
s 29
f 92/91/222 93/93/221 100/100/237 99/99/238
s 30
f 93/93/226 87/83/225 94/95/239 100/100/240
s 24
f 94/95/228 95/94/227 102/101/241 101/102/242
s 25
f 95/94/230 96/96/229 103/103/243 102/101/244
s 26
f 96/96/232 97/97/231 104/104/245 103/103/246
s 27
f 97/97/234 98/98/233 105/105/247 104/104/248
s 28
f 98/98/236 99/99/235 106/106/249 105/105/250
s 29
f 99/99/238 100/100/237 107/107/251 106/106/252
s 30
f 100/100/240 94/95/239 101/102/253 107/107/254
s off
f 85/90/255 84/88/256 83/86/257 82/84/258 81/81/259 80/80/260 86/92/261
f 107/107/262 101/102/263 102/101/264 103/103/265 104/104/266 105/105/267 106/106/268
s 31
f 108/108/269 109/109/270 116/110/271 115/111/272
s 32
f 109/109/273 110/112/274 117/113/275 116/110/276
s 33
f 110/112/277 111/114/278 118/115/279 117/113/280
s 34
f 111/114/281 112/116/282 119/117/283 118/115/284
s 35
f 112/116/285 113/118/286 120/119/287 119/117/288
s 36
f 113/118/289 114/120/290 121/121/291 120/119/292
s 37
f 114/120/293 108/108/294 115/111/295 121/121/296
s 31
f 115/111/272 116/110/271 123/122/297 122/123/298
s 32
f 116/110/276 117/113/275 124/124/299 123/122/300
s 33
f 117/113/280 118/115/279 125/125/301 124/124/302
s 34
f 118/115/284 119/117/283 126/126/303 125/125/304
s 35
f 119/117/288 120/119/287 127/127/305 126/126/306
s 36
f 120/119/292 121/121/291 128/128/307 127/127/308
s 37
f 121/121/296 115/111/295 122/123/309 128/128/310
s 31
f 122/123/298 123/122/297 130/129/311 129/130/312
s 32
f 123/122/300 124/124/299 131/131/313 130/129/314
s 33
f 124/124/302 125/125/301 132/132/315 131/131/316
s 34
f 125/125/304 126/126/303 133/133/317 132/132/318
s 35
f 126/126/306 127/127/305 134/134/319 133/133/320
s 36
f 127/127/308 128/128/307 135/135/321 134/134/322
s 37
f 128/128/310 122/123/309 129/130/323 135/135/324
s off
f 113/118/325 112/116/326 111/114/327 110/112/328 109/109/329 108/108/330 114/120/331
f 135/135/332 129/130/333 130/129/334 131/131/335 132/132/336 133/133/337 134/134/338
